<svg xmlns="http://www.w3.org/2000/svg" viewBox="255 241 1578 1578"><rect x="255" y="241" width="1578" height="1578" fill="#1b998b" rx="280"/><path fill="#fff" d="m1644 1390-1 1-3 7h-1l-2 4-1 2h-1l-3 4-1 1-6 9-2 2q1 0 0 0l-1 2h-1l-1 2h-1l-18 18q1 0 0 0l-1 2h-1l-2 2q1 0 0 0l-3 2h-1l-3 4h-1l-2 2q1-1 0 0l-11 8h-1l-12 8h-1l-13 7v1l-3 2h-1l-12 5h-1l-4 3h-1l-7 2q-43 17-89 23-42 4-84 4c-18 0-37 1-55-5v-1l-8-3v-1l-24-22q0 1 0 0l-2-6a73 73 0 0 1 0-67l3-8q-1 0 0 0l11-10q22-22 55-21l59-1c33-3 64-10 90-31q10-8 18-17l3-4q-1 0 0 0l6-8q-1 0 0 0l14-26q14-40 5-82-15-81-94-106-38-12-77-12h-150l-11 1c-23 3-42 10-56 29h-1l-1 2h-1l-1 2h-1l-6 3c-51 36-111 36-162 0l-7-4q0 1 0 0l-12-11v-1l-2-1v-1l-6-10q-22-27-24-63-5-63 39-107l8-11q-1 0 0 0 18-22 16-48v-87l-3-32q-1-14-11-24h-1l-18-21v-1l-11-16q-12-19-17-40-11-57 22-103 11-14 25-27v-1l13-7q22-15 48-19 44-7 83 12l11 5q0-1 0 0l9 6 7 5v1l16 12q0-1 0 0l10 7q18 7 38 7h166q87 1 162 42l8 3v1l6 3v1l10 7v1l10 7 4 3q0-1 0 0l2 1v1l19 20h1l9 12h1l8 11v1l4 5v1l6 9v1l13 31q36 94 1 187l-14 31h-1l-6 10q1 0 0 0l-4 6-1 2h-1l-1 2h-1l-4 6q1 0 0 0l-1 2h-1l-3 4h-1l-2 4-2 2q1 0 0 0l-2 2q1 0 0 0l-2 2q1 0 0 0l-2 2q1 0 0 0l-2 2q1 0 0 0l-2 2q1 0 0 0l-2 2q1 0 0 0l-2 2q1-1 0 0l-3 2h-1l-6 5v1q-10 4-14 14 1 0 0 0c-4 9-3 10 5 16v1l10 6q0-1 0 0l4 2 4 3 1 1 5 3 1 1 6 4 5 3v1l8 5 2 2 4 3q0-1 0 0l25 26h1l2 2h-1l3 3v1l8 9v1l2 1v1l2 1v1q3 7 8 12v1l8 13v1l2 2v1l3 9q14 30 19 64l4 38v20q-3 64-31 119l-1 5h-1l-2 4q1 0 0 0zm-192-662v-1l-2-1v-1l-2-1v-1l-2-1v-2l-10-6v-2l-5-3-3-2-4-1v-2l-14-7h-2l-9-4-4-1q-21-6-41-7h-163q-12 1-26 5l-15 8h-1l-1 1-2 1a76 76 0 0 0-33 60l-1 119q0 17 9 30 22 35 62 35h171q32 0 60-14 29-12 48-39 35-58 15-124l-5-9v-2l-8-14v-1l-2-1v-2l-4-4v-1l-2-1v-1l-2-1v-1z"/><path fill="#fff" d="m458 737 1-1-3-5q-4-14-15-23-15-16-25-39c-30-65 3-145 70-173a132 132 0 0 1 154 205q-23 24-29 57l-1 14v521q0 13 3 26c7 32 33 52 68 53h210q32 1 56-21 56-48 128-31c90 24 130 134 67 208-48 56-133 68-195 10l-19-14v-1l-4-2h-1l-5-1v-1l-31-1-261-1c-33 0-66 3-98-3v-1l-4-1-1-1-5-1v-1l-4-1v-1l-8-4q0 1 0 0l-4-3v-1l-4-1v-1l-2-1v-1l-2-1v-1l-2-1v-1l-2-1v-1l-2-1v-1l-2-3-1-2-5-6v-1l-2-1v-1l-2-3v-1l-2-1v-1q-2-8-6-14v-3l-3-39-1-636-1-19v-4l-3-9v-3z"/><path fill="#1b998b" d="m1396 692 4 2 9 4h1l15 8q-1 0 0 0l4 2 3 2 5 4q-1 0 0 0 3 7 10 8-1 0 0 0l1 2 2 2 2 2 2 2 2 2 2 2 5 6h-1l2 2v1l8 15v1l6 20q5 32 0 63-6 44-43 72l-24 13q-28 13-58 13h-172c-30 1-66-28-65-64V761l2-14q6-22 23-39l7-9 2-1h1l16-6q15-4 30-4h149q21 0 42 4z"/></svg>